# AST/ASF file generated using VICON BodyLanguage
# -----------------------------------------------
:version 1.10
:name VICON
:units
  mass 1.0
  length 0.45
  angle deg
:documentation
   .ast/.asf automatically generated from VICON data using
   VICON BodyBuilder and BodyLanguage model FoxedUp or BRILLIANT.MOD
:root
   order TX TY TZ RX RY RZ
   axis XYZ
   position 0 0 0  
   orientation 0 0 0 
:bonedata
  begin
     id 1 
     name lhipjoint
     direction 0.623529 -0.717805 0.309788 
     length 2.23224 
     axis 0 0 0  XYZ
  end
  begin
     id 2 
     name lfemur
     direction 0.34202 -0.939693 0  
     length 7.11402  
     axis 0 0 20  XYZ
    dof rx ry rz
    limits (-160.0 20.0)
           (-70.0 70.0)
           (-60.0 70.0)
  end
  begin
     id 3 
     name ltibia
     direction 0.34202 -0.939693 0   
     length 6.78496   
     axis 0 0 20   XYZ
    dof rx
    limits (-10.0 170.0)
  end
  begin
     id 4 
     name lfoot
     direction 0.125078 -0.343648 0.930732   
     length 1.84054   
     axis -90 7.62852e-016 20   XYZ
    dof rx rz
    limits (-45.0 90.0)
           (-70.0 20.0)
  end
  begin
     id 5 
     name ltoes
     direction 1.53565e-011 -4.21893e-011 1   
     length 0.916474   
     axis -90 7.62852e-016 20   XYZ
    dof rx
    limits (-90.0 20.0)
  end
  begin
     id 6 
     name rhipjoint
     direction -0.564688 -0.757748 0.327026   
     length 2.11457  
     axis 0 0 0  XYZ 
  end
  begin
     id 7 
     name rfemur
     direction -0.34202 -0.939693 0   
     length 7.14609   
     axis 0 0 -20   XYZ
    dof rx ry rz
    limits (-160.0 20.0)
           (-70.0 70.0)
           (-70.0 60.0)
  end
  begin
     id 8 
     name rtibia
     direction -0.34202 -0.939693 0   
     length 6.78101   
     axis 0 0 -20   XYZ
    dof rx
    limits (-10.0 170.0)
 end
 begin
     id 9 
     name rfoot
     direction -0.0992671 -0.272734 0.956955   
     length 1.96168  
     axis -90 -7.62852e-016 -20   XYZ
    dof rx rz
    limits (-45.0 90.0)
           (-20.0 70.0)
  end
  begin
     id 10 
     name rtoes
     direction -1.5356e-011 -4.21891e-011 1   
     length 0.982933   
     axis -90 -7.62852e-016 -20   XYZ
    dof rx
    limits (-90.0 20.0)
  end
  begin
     id 11 
     name lowerback
     direction -0.00596953 0.998668 0.0512524   
     length 1.87557   
     axis 0 0 0   XYZ
    dof rx ry rz
    limits (-20.0 45.0)
           (-30.0 30.0)
           (-30.0 30.0)
  end
  begin
     id 12 
     name upperback
     direction 0.00584879 0.999652 0.0257308   
     length 1.87883   
     axis 0 0 0   XYZ
    dof rx ry rz
    limits (-20.0 45.0)
           (-30.0 30.0)
           (-30.0 30.0)
  end
  begin
     id 13 
     name thorax
     direction 0.010104 0.999947 0.00178881   
     length 1.87779   
     axis 0 0 0   XYZ
    dof rx ry rz
    limits (-20.0 45.0)
           (-30.0 30.0)
           (-30.0 30.0)
  end
  begin
     id 14 
     name lowerneck
     direction 0.0120771 0.995934 -0.0892773   
     length 1.40897   
     axis 0 0 0   XYZ
    dof rx ry rz
    limits (-20.0 45.0)
           (-30.0 30.0)
           (-30.0 30.0)
  end
  begin
     id 15 
     name upperneck
     direction -0.030568 0.999465 -0.0116366   
     length 1.38661   
     axis 0 0 0   XYZ
    dof rx ry rz
    limits (-20.0 45.0)
           (-30.0 30.0)
           (-30.0 30.0)
  end
  begin
     id 16
     name head
     direction -0.0170715 0.999854 -0.00104426  
     length 1.47052  
     axis 0 0 0   XYZ
    dof rx ry rz
    limits (-20.0 45.0)
           (-30.0 30.0)
           (-30.0 30.0)
  end
  begin
     id 17 
     name lclavicle
     direction 0.977763 0.206143 0.038532  
     length 3.02424  
     axis 0 0 0   XYZ
    dof ry rz
    limits (-20.0 10.0)
           (0.0 20.0)
  end
  begin
     id 18 
     name lhumerus
     direction 1 -4.48965e-011 -2.62654e-027   
     length 4.68382   
     axis 180 -30 -90   XYZ
    dof rx ry rz
    limits (-60.0 90.0)
           (-90.0 90.0)
           (-90.0 90.0)
  end
  begin
     id 19
     name lradius
     direction 1 -4.48973e-011 -1.54954e-027   
     length 2.98124   
     axis 180 -30 -90   XYZ
    dof rx
    limits (-10.0 170.0)
  end
  begin
     id 20
     name lwrist
     direction 1 -4.48959e-011 7.20928e-028   
     length 1.49062   
     axis -5.52449e-016 90 90   XYZ
    dof ry
    limits (-180.0 0.0)
 end
  begin
     id 21 
     name lhand
     direction 1 -4.48971e-011 1.44186e-027   
     length 0.707595   
     axis -9.20027e-016 90 90   XYZ
    dof rx rz
    limits (-90.0 90.0)
           (-45.0 45.0)
  end
  begin
     id 22 
     name lfingers
     direction 1 -4.48985e-011 2.88371e-027   
     length 0.570481   
     axis -1.84005e-015 90 90   XYZ
    dof rx
    limits (0.0 90.0)
  end
  begin
     id 23
     name lthumb
     direction 0.707107 -6.34929e-011 0.707107   
     length 0.819101   
     axis -90 45 2.85299e-015   XYZ
    dof rx rz
    limits (-45.0 45.0)
           (-45.0 45.0)
  end
  begin
     id 24 
     name rclavicle
     direction -0.958661 0.284411 -0.00895327   
     length 3.11921  
     axis 0 0 0   XYZ 
    dof ry rz
    limits (-10.0 20.0)
           (-20.0 0.0)
  end
  begin
     id 25 
     name rhumerus
     direction -1 -4.48963e-011 -4.22193e-027  
     length 4.75876   
     axis 180 30 90   XYZ
    dof rx ry rz
    limits (-90.0 60.0)
           (-90.0 90.0)
           (-90.0 90.0)
  end
  begin
     id 26 
     name rradius
     direction -1 -4.48968e-011 -1.07616e-027   
     length 2.93293   
     axis 180 30 90   XYZ
    dof rx
    limits (-10.0 170.0)
  end
  begin
     id 27 
     name rwrist
     direction -1 -4.48965e-011 7.20928e-028   
     length 1.46647   
     axis -5.52449e-016 -90 -90   XYZ
    dof ry
    limits (-180.0 0.0)
  end
  begin
     id 28
     name rhand
     direction -1 -4.48971e-011 1.44186e-027   
     length 0.831748   
     axis -9.20027e-016 -90 -90   XYZ
    dof rx rz
    limits (-90.0 90.0)
           (-45.0 45.0)
  end
  begin
     id 29
     name rfingers
     direction -1 -4.48961e-011 2.88371e-027   
     length 0.670577   
     axis -1.84005e-015 -90 -90   XYZ
    dof rx
    limits (0.0 90.0)
  end
  begin
     id 30
     name rthumb
     direction -0.707107 -6.34929e-011 0.707107   
     length 0.962818   
     axis -90 -45 -2.85299e-015   XYZ
    dof rx rz
    limits (-45.0 45.0)
           (-45.0 45.0)
  end
:hierarchy
  begin
    root lhipjoint rhipjoint lowerback
    lhipjoint lfemur
    lfemur ltibia
    ltibia lfoot
    lfoot ltoes
    rhipjoint rfemur
    rfemur rtibia
    rtibia rfoot
    rfoot rtoes
    lowerback upperback
    upperback thorax
    thorax lowerneck lclavicle rclavicle
    lowerneck upperneck
    upperneck head
    lclavicle lhumerus
    lhumerus lradius
    lradius lwrist
    lwrist lhand lthumb
    lhand lfingers
    rclavicle rhumerus
    rhumerus rradius
    rradius rwrist
    rwrist rhand rthumb
    rhand rfingers
  end

#!OML:ASF E:\id_vita\Project 1\Capture day 1\Session 1\Female.ASF
:FULLY-SPECIFIED
:DEGREES
739
root 33.2584 16.8933 -10.2099 -150.249 61.3521 183.533
lowerback -16.1205 0.68631 -7.09032
upperback -5.46157 2.52197 -1.45146
thorax 2.97445 1.47714 2.93978
lowerneck 0.76664 -1.81734 -6.78926
upperneck -15.7262 -1.01549 9.26208
head -4.69215 -0.39831 4.04247
rclavicle -3.97569e-016 2.3059e-014
rhumerus 56.5709 -36.9328 -54.7697
rradius 25.0692
rwrist 9.12559
rhand -30.6814 7.801
rfingers 7.12502
rthumb -3.97552 -22.1417
lclavicle -3.97569e-016 2.3059e-014
lhumerus 75.0945 14.1206 43.2967
lradius 31.1423
lwrist -12.1701
lhand -26.1641 26.7286
lfingers 7.12502
lthumb 0.387263 56.708
rfemur -9.31162 3.54305 25.572
rtibia 16.7862
rfoot 6.96883 -6.0221
rtoes -10.28
lfemur -41.6536 -16.0013 -8.62744
ltibia 21.1028
lfoot -24.5301 -8.72837
ltoes -22.1194
740
root 33.2598 16.8961 -10.2153 -150.421 61.4499 182.972
lowerback -16.3379 0.640336 -7.28249
upperback -5.57868 2.52823 -1.5464
thorax 2.96066 1.49226 2.9537
lowerneck 1.34074 -1.82741 -6.32402
upperneck -16.4852 -1.0116 8.91148
head -5.03148 -0.408427 3.87275
rclavicle 5.97348e-014 -1.59028e-014
rhumerus 57.3052 -37.4046 -55.7768
rradius 24.4977
rwrist 10.0153
rhand -30.8718 8.17211
rfingers 7.12502
rthumb -4.1593 -21.767
lclavicle 5.97348e-014 -1.59028e-014
lhumerus 75.0837 14.1687 43.4263
lradius 31.1328
lwrist -12.3382
lhand -26.0523 26.2858
lfingers 7.12502
lthumb 0.495201 56.265
rfemur -9.69598 3.13596 25.2387
rtibia 16.86
rfoot 6.87139 -5.69698
rtoes -10.2704
lfemur -41.9691 -15.9888 -8.89469
ltibia 21.0071
lfoot -24.3403 -8.89275
ltoes -22.2289
741
root 33.2894 16.8882 -10.2101 -150.806 61.6831 182.315
lowerback -16.8448 0.483589 -7.9437
upperback -5.52261 2.4891 -1.54016
thorax 3.26109 1.46721 3.34423
lowerneck 1.29626 -1.77688 -6.61288
upperneck -16.6541 -0.886979 9.22617
head -5.07855 -0.341846 4.01933
rclavicle -6.34123e-014 -3.18055e-015
rhumerus 58.3685 -37.7922 -57.0927
rradius 23.8908
rwrist 10.7106
rhand -31.183 8.78038
rfingers 7.12502
rthumb -4.45987 -21.1527
lclavicle -6.34123e-014 -3.18055e-015
lhumerus 74.5543 14.4289 42.416
lradius 31.3574
lwrist -11.7174
lhand -26.4136 26.3327
lfingers 7.12502
lthumb 0.146303 56.3124
rfemur -9.85783 4.46132 24.9111
rtibia 16.9511
rfoot 7.57918 -6.87842
rtoes -10.2374
lfemur -42.0803 -15.8811 -9.18007
ltibia 20.8991
lfoot -24.276 -8.93189
ltoes -22.3921
742
root 33.2798 16.8895 -10.2218 -150.784 61.7491 182.44
lowerback -16.6201 0.55644 -7.62141
upperback -5.51729 2.5057 -1.57939
thorax 3.16331 1.47444 3.11681
lowerneck 1.03168 -1.7567 -6.58127
upperneck -16.5981 -0.838712 9.223
head -5.02023 -0.310434 4.00685
rclavicle -2.18663e-015 7.95139e-015
rhumerus 59.2173 -38.0972 -58.1589
rradius 23.3827
rwrist 11.1197
rhand -31.3262 9.21065
rfingers 7.12502
rthumb -4.59813 -20.7194
lclavicle -2.18663e-015 7.95139e-015
lhumerus 74.8176 14.5864 42.7274
lradius 31.0263
lwrist -11.8576
lhand -26.3753 26.7736
lfingers 7.12502
lthumb 0.18327 56.7532
rfemur -9.79393 4.07301 24.9014
rtibia 17.0039
rfoot 7.37671 -6.63467
rtoes -9.97545
lfemur -41.9054 -15.9027 -9.20135
ltibia 20.839
lfoot -24.1987 -9.04278
ltoes -21.7848
743
root 33.2822 16.8884 -10.2259 -150.762 61.7746 182.505
lowerback -16.5422 0.52405 -7.4908
upperback -5.46539 2.42606 -1.52131
thorax 3.18888 1.42875 3.08913
lowerneck 1.01147 -1.74883 -6.07466
upperneck -16.938 -0.843337 8.6384
head -5.13307 -0.301951 3.74102
rclavicle 9.14409e-015 -2.70347e-014
rhumerus 60.5084 -38.3296 -59.6347
rradius 22.8304
rwrist 11.7667
rhand -31.2663 9.16255
rfingers 7.12502
rthumb -4.5403 -20.7688
lclavicle 9.14409e-015 -2.70347e-014
lhumerus 75.0614 14.8805 43.4067
lradius 30.6929
lwrist -12.5011
lhand -25.956 27.156
lfingers 7.12502
lthumb 0.588266 57.1349
rfemur -9.7309 4.03147 24.9329
rtibia 16.9862
rfoot 7.4264 -6.63285
rtoes -10.2785
lfemur -41.8258 -15.8953 -9.18686
ltibia 20.8368
lfoot -24.0838 -9.37407
ltoes -21.007
744
root 33.2847 16.8894 -10.2287 -150.713 61.7746 182.575
lowerback -16.5059 0.529513 -7.36436
upperback -5.41733 2.40384 -1.48858
thorax 3.22739 1.41182 3.0487
lowerneck 1.42514 -1.6367 -5.54028
upperneck -17.5932 -0.710372 8.00626
head -5.4289 -0.232489 3.45913
rclavicle -8.70677e-014 -2.70347e-014
rhumerus 61.1898 -38.4611 -60.3152
rradius 22.5237
rwrist 11.8876
rhand -31.0619 8.60518
rfingers 7.12502
rthumb -4.34291 -21.3303
lclavicle -8.70677e-014 -2.70347e-014
lhumerus 74.8042 15.0517 43.2083
lradius 30.8852
lwrist -12.4577
lhand -25.8478 27.6633
lfingers 7.12502
lthumb 0.692697 57.6419
rfemur -9.69705 4.11306 24.9833
rtibia 16.9951
rfoot 7.52245 -6.73903
rtoes -10.8285
lfemur -41.801 -15.8608 -9.17952
ltibia 20.8369
lfoot -23.7066 -9.91056
ltoes -19.6255
745
root 33.2876 16.8912 -10.23 -150.737 61.8556 182.609
lowerback -16.3319 0.612405 -7.16335
upperback -5.50966 2.47067 -1.59873
thorax 3.04489 1.45466 2.82305
lowerneck 1.73991 -1.26759 -5.31829
upperneck -17.7138 -0.223736 7.81794
head -5.5589 -0.00486585 3.34323
rclavicle -1.68967e-015 8.74653e-015
rhumerus 61.3152 -38.5688 -60.6284
rradius 22.2597
rwrist 11.7845
rhand -30.9096 7.78441
rfingers 7.12502
rthumb -4.19587 -22.154
lclavicle -1.68967e-015 8.74653e-015
lhumerus 74.6158 14.9679 43.0542
lradius 30.7061
lwrist -12.7457
lhand -26.3846 26.7517
lfingers 7.12502
lthumb 0.174318 56.7314
rfemur -9.60856 4.38506 24.9696
rtibia 16.9744
rfoot 7.64637 -6.98781
rtoes -10.9249
lfemur -41.7096 -15.7831 -9.24603
ltibia 20.8462
lfoot -23.3371 -10.4735
ltoes -17.8724
